<?xml version="1.0" standalone="no"?>
<!DOCTYPE svg PUBLIC "-//W3C//DTD SVG 20010904//EN"
 "http://www.w3.org/TR/2001/REC-SVG-20010904/DTD/svg10.dtd">
<svg version="1.0" xmlns="http://www.w3.org/2000/svg"
 width="512.000000pt" height="512.000000pt" viewBox="0 0 512.000000 512.000000"
 preserveAspectRatio="xMidYMid meet">
<metadata>
Created by potrace 1.16, written by Peter Selinger 2001-2019
</metadata>
<g transform="translate(0.000000,512.000000) scale(0.100000,-0.100000)"
fill="#000000" stroke="none">
<path d="M303 5052 c-86 -74 -272 -269 -286 -299 -33 -73 41 -14 241 191 78
80 142 151 142 156 0 23 -34 6 -97 -48z"/>
<path d="M503 5051 c-104 -90 -480 -475 -488 -500 -12 -37 2 -35 52 7 72 60
533 529 533 541 0 24 -33 8 -97 -48z"/>
<path d="M703 5051 c-112 -97 -680 -674 -687 -699 -23 -71 24 -29 442 391 188
189 342 349 342 356 0 24 -32 8 -97 -48z"/>
<path d="M903 5051 c-116 -100 -880 -875 -888 -899 -22 -72 19 -35 543 491
243 244 442 449 442 455 0 25 -32 10 -97 -47z"/>
<path d="M1103 5051 c-118 -102 -1080 -1075 -1088 -1099 -11 -38 2 -37 52 6
79 66 1133 1127 1133 1140 0 25 -32 10 -97 -47z"/>
<path d="M1333 5078 c-21 -17 -191 -183 -378 -367 -187 -185 -367 -357 -401
-382 -33 -26 -86 -80 -116 -120 -31 -41 -113 -130 -183 -199 -199 -196 -275
-290 -235 -290 6 0 81 69 167 153 121 118 155 146 149 124 -3 -15 -9 -48 -12
-75 -6 -44 -14 -55 -128 -172 -68 -69 -137 -142 -154 -163 -32 -37 -41 -67
-22 -67 5 0 75 64 155 141 l145 142 0 -64 0 -64 -96 -95 c-168 -166 -242 -260
-204 -260 5 0 75 64 155 141 l145 142 0 -64 0 -64 -96 -95 c-168 -166 -242
-260 -204 -260 5 0 75 64 155 141 l145 142 0 -64 0 -64 -96 -95 c-168 -166
-242 -260 -204 -260 5 0 75 64 155 141 l145 142 0 -64 0 -64 -96 -95 c-168
-166 -242 -260 -204 -260 5 0 75 64 155 141 l145 142 0 -64 0 -64 -96 -95
c-168 -166 -242 -260 -204 -260 5 0 75 64 155 141 l145 142 0 -64 0 -64 -96
-95 c-168 -166 -242 -260 -204 -260 5 0 75 64 155 141 l145 142 0 -64 0 -64
-96 -95 c-168 -166 -242 -260 -204 -260 5 0 75 64 155 141 l145 142 0 -64 0
-64 -96 -95 c-168 -166 -242 -260 -204 -260 5 0 75 64 155 141 l145 142 0 -64
0 -64 -96 -95 c-168 -166 -242 -260 -204 -260 5 0 75 64 155 141 l145 142 0
-64 0 -64 -96 -95 c-168 -166 -242 -260 -204 -260 5 0 75 64 155 141 l145 142
0 -64 0 -64 -96 -95 c-168 -166 -242 -260 -204 -260 5 0 75 64 155 141 l145
142 0 -64 0 -64 -96 -95 c-168 -166 -242 -260 -204 -260 5 0 75 64 155 141
l145 142 0 -64 0 -64 -96 -95 c-168 -166 -242 -260 -204 -260 5 0 75 63 154
140 l144 141 11 -53 12 -52 -134 -136 c-73 -74 -148 -152 -165 -173 -32 -37
-41 -67 -22 -67 6 0 84 72 175 161 l164 161 21 -43 22 -42 -164 -166 c-91 -91
-179 -183 -196 -204 -32 -38 -41 -67 -21 -67 5 0 100 88 209 196 l199 196 30
-34 30 -33 -208 -210 c-114 -115 -222 -227 -239 -248 -32 -38 -41 -67 -21 -67
6 0 122 110 257 244 l247 244 35 -29 35 -29 -261 -263 c-143 -144 -275 -279
-292 -300 -32 -38 -41 -67 -21 -67 6 0 148 136 315 302 l304 301 40 -18 c22
-10 40 -20 40 -23 0 -3 -146 -153 -325 -333 -179 -179 -325 -331 -325 -338 0
-20 29 -11 67 21 21 17 174 166 339 331 l301 299 44 -7 c24 -4 48 -10 52 -12
5 -3 -129 -144 -297 -313 -168 -169 -306 -313 -306 -319 0 -47 85 27 425 368
l260 261 64 0 65 0 -307 -309 c-169 -170 -307 -314 -307 -320 0 -47 85 27 425
368 l260 261 64 0 65 0 -307 -309 c-169 -170 -307 -314 -307 -320 0 -47 85 27
425 368 l260 261 64 0 65 0 -307 -309 c-169 -170 -307 -314 -307 -320 0 -47
85 27 425 368 l260 261 64 0 65 0 -307 -309 c-169 -170 -307 -314 -307 -320 0
-47 85 27 425 368 l260 261 64 0 65 0 -307 -309 c-169 -170 -307 -314 -307
-320 0 -47 85 27 425 368 l260 261 64 0 65 0 -307 -309 c-169 -170 -307 -314
-307 -320 0 -47 85 27 425 368 l260 261 64 0 65 0 -307 -309 c-169 -170 -307
-314 -307 -320 0 -47 85 27 425 368 l260 261 64 0 65 0 -307 -309 c-169 -170
-307 -314 -307 -320 0 -47 85 27 425 368 l260 261 64 0 65 0 -307 -309 c-169
-170 -307 -314 -307 -320 0 -47 85 27 425 368 l260 261 64 0 65 0 -307 -309
c-169 -170 -307 -314 -307 -320 0 -47 85 27 425 368 l260 261 64 0 65 0 -307
-309 c-169 -170 -307 -314 -307 -320 0 -47 85 27 425 368 l260 261 64 0 65 0
-307 -309 c-169 -170 -307 -314 -307 -320 0 -47 85 27 425 368 l260 261 64 0
65 0 -307 -309 c-169 -170 -307 -314 -307 -320 0 -20 29 -11 67 21 21 17 169
161 328 319 290 287 290 287 340 293 28 3 61 8 75 12 16 4 -87 -106 -292 -313
-175 -176 -318 -326 -318 -332 0 -48 85 27 455 399 160 160 315 309 346 330
72 50 139 117 189 189 21 31 242 259 490 506 249 248 478 480 511 518 57 65
72 97 47 97 -6 0 -227 -215 -491 -477 -305 -304 -477 -469 -473 -453 4 14 9
48 12 75 l6 50 447 450 c246 248 462 467 479 488 33 39 41 67 20 67 -6 0 -222
-210 -480 -467 l-468 -467 0 64 0 65 421 420 c231 231 447 450 480 488 57 65
72 97 47 97 -6 0 -222 -210 -480 -467 l-468 -467 0 64 0 65 421 420 c231 231
447 450 480 488 57 65 72 97 47 97 -6 0 -222 -210 -480 -467 l-468 -467 0 64
0 65 421 420 c231 231 447 450 480 488 57 65 72 97 47 97 -6 0 -222 -210 -480
-467 -348 -348 -468 -461 -468 -445 0 12 -9 31 -21 43 l-21 21 495 497 c272
273 498 506 502 519 11 38 -2 37 -52 -6 -26 -22 -536 -529 -1133 -1126 l-1085
-1086 -65 0 -65 0 1171 1173 c644 644 1185 1189 1202 1210 33 39 41 67 20 67
-7 0 -564 -551 -1238 -1225 l-1225 -1225 -65 0 -65 0 1271 1273 c699 699 1285
1289 1302 1310 33 39 41 67 20 67 -6 0 -223 -210 -482 -467 -259 -258 -463
-459 -455 -448 9 11 107 137 219 280 171 220 238 296 434 495 128 129 247 252
264 273 32 38 41 67 22 67 -6 0 -91 -79 -189 -175 -168 -165 -179 -174 -185
-150 -4 14 -15 30 -26 37 -17 11 -1 30 189 224 189 191 234 245 217 261 -10
10 -68 -46 -513 -490 l-443 -442 0 65 0 65 421 420 c231 231 447 450 480 488
57 65 72 97 47 97 -6 0 -222 -210 -480 -467 l-468 -467 0 64 0 65 421 420
c231 231 447 450 480 488 57 65 72 97 47 97 -6 0 -222 -210 -480 -467 l-468
-467 0 64 0 65 421 420 c231 231 447 450 480 488 57 65 72 97 47 97 -6 0 -222
-210 -480 -467 l-468 -467 0 64 0 65 421 420 c231 231 447 450 480 488 57 65
72 97 47 97 -6 0 -222 -210 -480 -467 l-468 -467 0 64 0 65 421 420 c231 231
447 450 480 488 57 65 72 97 47 97 -6 0 -222 -210 -479 -466 l-467 -466 -11
53 -12 53 459 461 c252 253 473 477 490 498 33 39 41 67 20 67 -6 0 -231 -219
-499 -486 l-487 -486 -20 43 -19 44 458 461 c253 253 459 466 459 472 0 21
-29 13 -67 -20 -21 -17 -227 -220 -459 -450 l-421 -419 -27 36 -28 37 401 402
c220 222 401 408 401 414 0 21 -29 13 -67 -20 -21 -17 -203 -196 -404 -396
l-367 -365 -36 28 -37 28 356 357 c195 197 355 362 355 369 0 20 -29 12 -67
-21 -21 -17 -184 -177 -363 -355 l-325 -323 -44 21 -43 21 321 322 c176 178
321 329 321 335 0 20 -29 11 -67 -21 -21 -17 -171 -164 -333 -325 l-296 -294
-53 12 -53 11 301 303 c166 166 301 308 301 314 0 47 -86 -27 -420 -363 l-255
-256 -64 0 -65 0 302 304 c166 167 302 309 302 315 0 47 -86 -27 -420 -363
l-255 -256 -64 0 -65 0 302 304 c166 167 302 309 302 315 0 47 -86 -27 -420
-363 l-255 -256 -64 0 -65 0 302 304 c166 167 302 309 302 315 0 47 -86 -27
-420 -363 l-255 -256 -64 0 -65 0 302 304 c166 167 302 309 302 315 0 47 -86
-27 -420 -363 l-255 -256 -64 0 -65 0 302 304 c166 167 302 309 302 315 0 47
-86 -27 -420 -363 l-255 -256 -64 0 -65 0 302 304 c166 167 302 309 302 315 0
47 -86 -27 -420 -363 l-255 -256 -64 0 -65 0 302 304 c166 167 302 309 302
315 0 47 -86 -27 -420 -363 l-255 -256 -64 0 -65 0 302 304 c166 167 302 309
302 315 0 47 -86 -27 -420 -363 l-255 -256 -64 0 -65 0 302 304 c166 167 302
309 302 315 0 47 -86 -27 -420 -363 l-255 -256 -64 0 -65 0 302 304 c166 167
302 309 302 315 0 47 -86 -27 -420 -363 l-255 -256 -64 0 -65 0 302 304 c166
167 302 309 302 315 0 47 -86 -27 -420 -363 l-255 -256 -64 0 -65 0 302 304
c166 167 302 309 302 315 0 47 -86 -27 -420 -363 l-255 -256 -64 0 -65 0 302
304 c166 167 302 309 302 315 0 20 -29 11 -67 -21 -21 -17 -165 -158 -320
-312 l-282 -280 -80 -16 -81 -16 315 317 c173 174 315 322 315 328 0 20 -29
11 -67 -21z m-508 -1098 l-340 -340 -3 62 -3 62 278 278 278 278 65 0 65 0
-340 -340z m100 -100 l-440 -440 -3 62 -3 62 378 378 378 378 65 0 65 0 -440
-440z m100 -100 l-540 -540 -3 62 -3 62 478 478 478 478 65 0 65 0 -540 -540z
m100 -100 l-640 -640 -3 62 -3 62 578 578 578 578 65 0 65 0 -640 -640z m100
-100 l-740 -740 -3 62 -3 62 678 678 678 678 65 0 65 0 -740 -740z m100 -100
l-840 -840 -3 62 -3 62 778 778 778 778 65 0 65 0 -840 -840z m100 -100 l-940
-940 -3 62 -3 62 878 878 878 878 65 0 65 0 -940 -940z m100 -100 l-1040
-1040 -3 62 -3 62 978 978 978 978 65 0 65 0 -1040 -1040z m100 -100 l-1140
-1140 -3 62 -3 62 1078 1078 1078 1078 65 0 65 0 -1140 -1140z m100 -100
l-1240 -1240 -3 62 -3 62 1178 1178 1178 1178 65 0 65 0 -1240 -1240z m100
-100 l-1340 -1340 -3 62 -3 62 1278 1278 1278 1278 65 0 65 0 -1340 -1340z
m100 -100 l-1440 -1440 -3 62 -3 62 1378 1378 1378 1378 65 0 65 0 -1440
-1440z m1595 1434 c32 -7 20 -19 -1496 -1536 -1647 -1646 -1540 -1546 -1543
-1448 -1 34 60 96 1476 1512 1214 1214 1483 1478 1504 1478 15 0 41 -3 59 -6z
m-2795 -234 c-248 -248 -252 -251 -226 -135 11 47 23 62 156 195 152 152 175
166 265 169 34 1 28 -6 -195 -229z m2959 209 l39 -11 -1599 -1599 -1599 -1599
-12 33 c-6 17 -12 41 -12 52 -1 24 3105 3135 3129 3135 8 0 33 -5 54 -11z
m122 -60 c19 -11 34 -24 34 -27 0 -4 -728 -735 -1619 -1626 l-1618 -1618 -28
37 -29 36 1610 1610 c885 885 1611 1609 1613 1609 2 0 19 -9 37 -21z m105
-105 l22 -36 -1609 -1609 -1609 -1609 -39 26 -39 26 1619 1619 c891 891 1622
1619 1626 1619 3 0 16 -16 29 -36z m64 -150 l6 -39 -1559 -1559 -1560 -1559
-46 13 c-25 7 -46 15 -46 19 0 3 717 722 1592 1598 1095 1095 1595 1588 1600
1579 4 -7 10 -30 13 -52z m24 -184 c1 -33 -13 -49 -209 -245 l-211 -210 -20
28 c-12 15 -28 27 -37 27 -10 0 89 106 223 240 259 260 251 255 254 160z
m-165 -401 l-168 -168 -27 37 -28 37 192 193 192 192 3 -62 3 -62 -167 -167z
m43 -157 l-124 -123 -28 36 -28 37 149 149 149 149 3 -62 3 -62 -124 -124z
m-443 9 c9 -7 16 -19 16 -25 0 -6 -542 -553 -1203 -1214 l-1204 -1204 -58 7
-57 8 1238 1238 c973 973 1240 1235 1245 1221 4 -10 14 -24 23 -31z m487 -164
l-79 -80 -26 29 c-14 16 -26 33 -26 39 0 5 46 56 103 113 l102 103 3 -63 3
-62 -80 -79z m-406 57 l28 -36 -1149 -1149 -1149 -1149 -65 0 -65 0 1185 1185
c652 652 1186 1185 1186 1185 1 0 14 -16 29 -36z m-978 -1241 l-1092 -1093
-65 0 -65 0 1129 1129 1130 1130 27 -37 28 -37 -1092 -1092z m1148 1020 c13
-16 25 -32 25 -38 0 -5 -465 -475 -1032 -1042 l-1033 -1033 -65 0 -65 0 1070
1070 c588 589 1071 1070 1073 1070 2 0 14 -12 27 -27z m90 -119 l28 -36 -979
-979 -979 -979 -65 0 -65 0 1015 1015 c558 558 1016 1015 1016 1015 1 0 14
-16 29 -36z m-808 -1071 l-922 -923 -65 0 -65 0 959 959 960 960 27 -37 28
-37 -922 -922z m981 847 c12 -16 22 -33 22 -37 0 -4 -388 -396 -862 -870
l-863 -863 -65 0 -65 0 900 900 c495 495 902 900 906 900 3 0 15 -13 27 -30z
m-661 -927 l-842 -843 -65 0 -65 0 842 843 843 842 65 0 65 0 -843 -842z m236
-365 l-478 -478 -65 0 -65 0 540 540 540 540 3 -62 3 -62 -478 -478z m100
-100 l-378 -378 -65 0 -65 0 440 440 440 440 3 -62 3 -62 -378 -378z m100
-100 l-278 -278 -65 0 -65 0 340 340 340 340 3 -62 3 -62 -278 -278z m262 114
l-7 -57 -146 -148 c-81 -82 -155 -153 -164 -158 -9 -5 -45 -12 -80 -15 l-63
-6 230 231 c126 127 232 226 234 220 2 -6 0 -36 -4 -67z"/>
<path d="M4222 978 c-480 -480 -892 -895 -914 -921 -43 -50 -44 -63 -6 -52 24
8 1653 1626 1759 1748 57 65 72 97 47 97 -7 0 -405 -393 -886 -872z"/>
<path d="M4322 878 c-754 -754 -860 -863 -849 -874 3 -3 16 -3 29 1 24 8 1454
1427 1559 1548 57 65 72 97 47 97 -7 0 -360 -348 -786 -772z"/>
<path d="M4422 778 c-658 -658 -760 -763 -749 -774 3 -3 16 -3 29 1 24 8 1255
1228 1359 1348 57 65 72 97 47 97 -6 0 -315 -303 -686 -672z"/>
<path d="M4522 678 c-664 -663 -694 -695 -620 -673 24 8 1056 1030 1159 1148
57 65 72 97 47 97 -6 0 -270 -258 -586 -572z"/>
<path d="M4623 578 c-558 -557 -594 -595 -521 -573 24 8 858 832 959 948 57
65 72 97 47 97 -6 0 -225 -213 -485 -472z"/>
<path d="M4723 478 c-452 -450 -492 -495 -421 -472 25 7 661 634 759 747 56
65 72 97 48 97 -7 0 -180 -168 -386 -372z"/>
<path d="M4823 378 c-345 -342 -390 -394 -322 -373 25 8 468 441 560 548 56
64 72 97 48 97 -6 0 -135 -123 -286 -272z"/>
<path d="M4924 278 c-185 -182 -261 -265 -250 -275 14 -14 62 23 192 149 203
197 286 298 244 298 -6 0 -90 -78 -186 -172z"/>
</g>
</svg>
